<svg xmlns="http://www.w3.org/2000/svg" viewBox="0 0 600 400" width="600" height="400">
  <title>Colchis Food — The Bakery sub-brand lockup</title>

  <rect width="600" height="400" fill="#EAE2D2"></rect>
  <g transform="translate(230,30) scale(0.7)">
  <defs>
    <clipPath id="cf-clip">
      <circle cx="100" cy="100" r="92"></circle>
    </clipPath>
  </defs>
  <circle cx="100" cy="100" r="92" fill="#F5F0E6" stroke="#1F3026" stroke-width="2"></circle>
  <circle cx="100" cy="100" r="86" fill="none" stroke="#B96A3D" stroke-width="0.6"></circle>
  
  <g opacity="0.95">
    <path d="M 60 158 Q 70 150 78 154 Q 86 148 94 154 Q 100 148 106 154 Q 114 148 122 154 Q 130 150 140 158" fill="none" stroke="#B96A3D" stroke-width="1.2" stroke-linecap="round"></path>
  </g>
  <g clip-path="url(#cf-clip)">
    <path d="M 78 64 Q 56 64 56 100 Q 56 136 78 136 L 86 136 L 86 124 L 80 124 Q 70 124 70 100 Q 70 76 80 76 L 86 76 L 86 64 Z" fill="#1F3026"></path>
    <path d="M 96 64 L 96 136 L 110 136 L 110 106 L 132 106 L 132 94 L 110 94 L 110 76 L 138 76 L 138 64 Z" fill="#1F3026"></path>
    
    <rect x="70" y="62" width="20" height="3" fill="#1F3026"></rect>
    <rect x="70" y="135" width="20" height="3" fill="#1F3026"></rect>
    <rect x="92" y="62" width="20" height="3" fill="#1F3026"></rect>
    <rect x="92" y="135" width="22" height="3" fill="#1F3026"></rect>
    <rect x="130" y="62" width="12" height="3" fill="#1F3026"></rect>
    
    <circle cx="100" cy="50" r="2" fill="#B96A3D"></circle>
    <path d="M 100 42 q -3 -2 -3 -5 q 0 -3 3 -3 q 3 0 3 3" fill="none" stroke="#B96A3D" stroke-width="1.1" stroke-linecap="round"></path>
  </g>
  
  </g>
  <text x="300" y="200" font-family="Fraunces, Georgia, serif" font-weight="500" font-size="22" letter-spacing="5" fill="#1F3026" text-anchor="middle">COLCHIS FOOD</text>
  <g transform="translate(296,218) rotate(45)"><rect width="8" height="8" fill="#B96A3D"></rect></g>
  <text x="300" y="280" font-family="Fraunces, Georgia, serif" font-style="italic" font-weight="400" font-size="48" fill="#B96A3D" text-anchor="middle">The Bakery</text>
  <text x="300" y="320" font-family="JetBrains Mono, monospace" font-size="11" letter-spacing="4" fill="#7A8278" text-anchor="middle">KHACHAPURI · LOBIANI · OVEN-FRESH</text>
  
</svg>